<?xml version="1.0" encoding="UTF-8"?>
<!DOCTYPE svg PUBLIC "-//W3C//DTD SVG 1.1//EN" "http://www.w3.org/Graphics/SVG/1.1/DTD/svg11.dtd">
<svg xmlns="http://www.w3.org/2000/svg" version="1.1" width="400px" height="400px" style="shape-rendering:geometricPrecision; text-rendering:geometricPrecision; image-rendering:optimizeQuality; fill-rule:evenodd; clip-rule:evenodd" xmlns:xlink="http://www.w3.org/1999/xlink">
<g><path style="opacity:0.506" fill="#b6b7b8" d="M 180.5,83.5 C 160.069,79.3652 139.403,77.8652 118.5,79C 108.752,80.5107 99.0853,82.344 89.5,84.5C 119.722,74.2245 150.056,73.8912 180.5,83.5 Z"/></g>
<g><path style="opacity:0.364" fill="#bcbdbe" d="M 319.5,87.5 C 310.264,85.0568 300.93,82.8902 291.5,81C 277.534,79.4912 263.534,79.1579 249.5,80C 237.268,82.8892 225.268,86.0559 213.5,89.5C 212.957,89.56 212.624,89.8933 212.5,90.5C 240.159,91.4998 267.825,91.8331 295.5,91.5C 267.672,92.498 239.672,92.8313 211.5,92.5C 211.286,90.8561 211.62,89.3561 212.5,88C 248.254,74.3888 283.921,74.2222 319.5,87.5 Z"/></g>
<g><path style="opacity:1" fill="#6d7172" d="M 319.5,87.5 C 320.791,87.2627 321.791,87.596 322.5,88.5C 304.679,89.8329 286.512,90.4996 268,90.5C 249.664,90.4999 231.497,90.1666 213.5,89.5C 225.268,86.0559 237.268,82.8892 249.5,80C 263.534,79.1579 277.534,79.4912 291.5,81C 300.93,82.8902 310.264,85.0568 319.5,87.5 Z"/></g>
<g><path style="opacity:1" fill="#6d7071" d="M 180.5,83.5 C 186.38,86.696 192.714,89.0293 199.5,90.5C 201.576,91.4268 202.743,93.0935 203,95.5C 205.394,94.8641 207.894,94.8641 210.5,95.5C 214.173,97.0002 217.506,99.0002 220.5,101.5C 221.476,102.815 222.476,104.148 223.5,105.5C 225.9,106.018 227.9,107.185 229.5,109C 238.167,109.333 246.833,109.667 255.5,110C 253.277,110.566 251.277,111.4 249.5,112.5C 245.478,114.734 241.144,116.401 236.5,117.5C 233.084,117.528 230.084,118.528 227.5,120.5C 223.438,121.359 219.438,122.526 215.5,124C 213.273,124.941 211.273,126.108 209.5,127.5C 200.659,129.921 191.993,129.254 183.5,125.5C 176.613,121.933 169.28,119.266 161.5,117.5C 159.289,116.877 157.289,115.877 155.5,114.5C 151.915,112.194 147.915,110.861 143.5,110.5C 141.316,108.415 138.649,107.415 135.5,107.5C 133.214,107.405 131.214,106.738 129.5,105.5C 128.504,104.335 127.171,103.668 125.5,103.5C 111.011,106.744 96.6774,110.578 82.5,115C 81.944,115.383 81.6107,115.883 81.5,116.5C 80.5,116.5 79.5,116.5 78.5,116.5C 65.7662,115.395 53.0996,113.729 40.5,111.5C 43.1818,110.818 44.8485,109.152 45.5,106.5C 47.2964,104.1 49.6298,102.433 52.5,101.5C 90.8391,101.833 129.172,101.5 167.5,100.5C 161.199,97.67 154.533,96.3367 147.5,96.5C 139.944,96.1404 132.611,95.1404 125.5,93.5C 122.023,92.6773 118.356,92.1773 114.5,92C 113.167,91.3333 111.833,90.6667 110.5,90C 105.511,89.5007 100.511,89.3341 95.5,89.5C 91.7382,89.373 88.0715,88.7063 84.5,87.5C 86.3596,86.6751 88.0262,85.6751 89.5,84.5C 99.0853,82.344 108.752,80.5107 118.5,79C 139.403,77.8652 160.069,79.3652 180.5,83.5 Z"/></g>
<g><path style="opacity:0.255" fill="#b3b4b6" d="M 180.5,83.5 C 187.264,84.8636 193.598,87.1969 199.5,90.5C 192.714,89.0293 186.38,86.696 180.5,83.5 Z"/></g>
<g><path style="opacity:0.998" fill="#838687" d="M 95.5,89.5 C 100.511,89.3341 105.511,89.5007 110.5,90C 111.833,90.6667 113.167,91.3333 114.5,92C 118.356,92.1773 122.023,92.6773 125.5,93.5C 122.5,93.5 119.5,93.5 116.5,93.5C 110.752,93.3927 105.085,92.726 99.5,91.5C 98.1667,90.8333 96.8333,90.1667 95.5,89.5 Z"/></g>
<g><path style="opacity:0.255" fill="#b0b3b3" d="M 89.5,84.5 C 88.0262,85.6751 86.3596,86.6751 84.5,87.5C 88.0715,88.7063 91.7382,89.373 95.5,89.5C 96.8333,90.1667 98.1667,90.8333 99.5,91.5C 94.0736,91.4865 88.7403,90.8198 83.5,89.5C 82.269,88.3493 82.269,87.1827 83.5,86C 85.3453,84.872 87.3453,84.372 89.5,84.5 Z"/></g>
<g><path style="opacity:0.579" fill="#9a9b9d" d="M 322.5,88.5 C 324.652,89.0768 324.985,90.2435 323.5,92C 314.176,92.0012 304.843,91.8345 295.5,91.5C 267.825,91.8331 240.159,91.4998 212.5,90.5C 212.624,89.8933 212.957,89.56 213.5,89.5C 231.497,90.1666 249.664,90.4999 268,90.5C 286.512,90.4996 304.679,89.8329 322.5,88.5 Z"/></g>
<g><path style="opacity:0.184" fill="#aaabad" d="M 199.5,90.5 C 203.582,91.3764 207.249,93.0431 210.5,95.5C 207.894,94.8641 205.394,94.8641 203,95.5C 202.743,93.0935 201.576,91.4268 199.5,90.5 Z"/></g>
<g><path style="opacity:0.947" fill="#cacbcd" d="M 116.5,93.5 C 119.5,93.5 122.5,93.5 125.5,93.5C 132.611,95.1404 139.944,96.1404 147.5,96.5C 151.363,97.7674 155.363,98.934 159.5,100C 124.502,100.5 89.5016,100.667 54.5,100.5C 85.664,99.6676 116.997,99.1676 148.5,99C 137.671,97.3193 127.005,95.4859 116.5,93.5 Z"/></g>
<g><path style="opacity:0.343" fill="#bfc0c1" d="M 349.5,102.5 C 331.827,101.45 314.161,100.617 296.5,100C 297.958,102.46 299.791,104.627 302,106.5C 302.483,107.448 302.649,108.448 302.5,109.5C 300.143,109.337 297.81,109.503 295.5,110C 296.416,110.278 297.082,110.778 297.5,111.5C 295.167,111.5 292.833,111.5 290.5,111.5C 290.5,110.5 290.5,109.5 290.5,108.5C 293.747,107.748 297.081,107.248 300.5,107C 297.335,104.49 295.335,101.324 294.5,97.5C 313.026,98.6816 331.359,100.348 349.5,102.5 Z"/></g>
<g><path style="opacity:1" fill="#989a9b" d="M 147.5,96.5 C 154.533,96.3367 161.199,97.67 167.5,100.5C 129.172,101.5 90.8391,101.833 52.5,101.5C 52.8417,100.662 53.5084,100.328 54.5,100.5C 89.5016,100.667 124.502,100.5 159.5,100C 155.363,98.934 151.363,97.7674 147.5,96.5 Z"/></g>
<g><path style="opacity:0.926" fill="#fcfcfc" d="M 290.5,108.5 C 290.5,109.5 290.5,110.5 290.5,111.5C 292.833,111.5 295.167,111.5 297.5,111.5C 298.568,112.434 299.901,112.768 301.5,112.5C 305.099,114.928 309.099,116.594 313.5,117.5C 313.842,118.338 314.508,118.672 315.5,118.5C 318.962,119.482 322.629,119.815 326.5,119.5C 327.673,121.504 329.34,123.004 331.5,124C 335.025,124.179 338.359,124.679 341.5,125.5C 336.863,125.354 336.53,126.021 340.5,127.5C 343.653,128.588 346.653,129.922 349.5,131.5C 349.5,135.5 349.5,139.5 349.5,143.5C 348.679,140.359 348.179,137.025 348,133.5C 346.961,134.244 346.461,135.244 346.5,136.5C 345.735,136.077 344.902,135.743 344,135.5C 340.87,136.563 338.037,137.896 335.5,139.5C 325.188,141.287 315.021,143.954 305,147.5C 303.97,147.836 303.47,148.503 303.5,149.5C 298.426,149.721 293.759,151.054 289.5,153.5C 281.61,155.67 273.61,156.003 265.5,154.5C 262.237,153.518 258.903,152.851 255.5,152.5C 255.5,152.167 255.5,151.833 255.5,151.5C 253.095,150.232 250.428,149.565 247.5,149.5C 247.167,149.5 246.833,149.5 246.5,149.5C 244.485,148.076 242.152,147.41 239.5,147.5C 238.448,145.744 236.781,145.077 234.5,145.5C 232.898,143.926 230.898,143.259 228.5,143.5C 228.167,143.5 227.833,143.5 227.5,143.5C 226.393,141.031 224.393,140.031 221.5,140.5C 220.167,140.5 218.833,140.5 217.5,140.5C 215.898,138.926 213.898,138.259 211.5,138.5C 209.901,138.768 208.568,138.434 207.5,137.5C 207.158,136.662 206.492,136.328 205.5,136.5C 204.791,135.596 203.791,135.263 202.5,135.5C 202.5,136.833 202.5,138.167 202.5,139.5C 200.958,138.699 199.292,138.366 197.5,138.5C 197.5,137.5 197.5,136.5 197.5,135.5C 195.265,135.205 193.265,135.539 191.5,136.5C 191.5,136.833 191.5,137.167 191.5,137.5C 187.78,137.564 184.114,138.064 180.5,139C 179.944,139.383 179.611,139.883 179.5,140.5C 177.801,140.34 176.134,140.506 174.5,141C 173.244,141.417 172.577,142.25 172.5,143.5C 171.833,143.5 171.167,143.5 170.5,143.5C 166.292,143.677 162.626,145.01 159.5,147.5C 153.599,148.026 148.266,149.693 143.5,152.5C 138.712,153.457 134.045,154.79 129.5,156.5C 123.547,155.443 117.547,154.776 111.5,154.5C 109.316,152.415 106.649,151.415 103.5,151.5C 100.833,150.833 98.1667,150.167 95.5,149.5C 94.0697,148.463 92.403,147.796 90.5,147.5C 87.1996,145.358 83.533,144.025 79.5,143.5C 75.9155,141.194 71.9155,139.861 67.5,139.5C 66.1667,139.5 64.8333,139.5 63.5,139.5C 62.1667,138.833 60.8333,138.167 59.5,137.5C 57.5615,135.837 55.2282,135.171 52.5,135.5C 53.1342,134.053 54.3009,133.387 56,133.5C 58.8075,134.386 61.6408,134.553 64.5,134C 70.843,129.831 75.5096,124.331 78.5,117.5C 78.5,117.167 78.5,116.833 78.5,116.5C 79.5,116.5 80.5,116.5 81.5,116.5C 82.1667,116.5 82.8333,116.5 83.5,116.5C 92.4659,116.44 99.7992,119.94 105.5,127C 109.667,128.833 113.833,130.667 118,132.5C 123.685,129.196 129.851,127.03 136.5,126C 142.301,124.033 146.301,120.199 148.5,114.5C 148.137,113.817 147.804,113.15 147.5,112.5C 150.006,113.75 152.673,114.416 155.5,114.5C 157.289,115.877 159.289,116.877 161.5,117.5C 161.611,118.117 161.944,118.617 162.5,119C 169.641,121.03 176.641,123.197 183.5,125.5C 191.993,129.254 200.659,129.921 209.5,127.5C 213.562,126.641 217.562,125.474 221.5,124C 223.727,123.059 225.727,121.892 227.5,120.5C 230.855,120.31 233.855,119.31 236.5,117.5C 241.144,116.401 245.478,114.734 249.5,112.5C 252.686,112.663 255.353,111.663 257.5,109.5C 248.342,108.833 239.342,108.167 230.5,107.5C 240.172,107.334 249.839,107.5 259.5,108C 260.43,108.991 261.596,109.491 263,109.5C 267.429,107.357 272.095,106.024 277,105.5C 281.594,106.201 286.094,107.201 290.5,108.5 Z M 228.5,124.5 C 233.233,124.223 237.9,124.557 242.5,125.5C 244.613,128.71 244.613,132.044 242.5,135.5C 237.465,137.253 232.465,137.92 227.5,137.5C 224.99,132.999 225.323,128.665 228.5,124.5 Z M 149.5,126.5 C 156.881,126.318 164.047,127.318 171,129.5C 171.067,136.781 167.401,141.114 160,142.5C 154.521,141.337 149.021,140.337 143.5,139.5C 144.724,134.835 146.724,130.502 149.5,126.5 Z"/></g>
<g><path style="opacity:0.318" fill="#b6b6b8" d="M 135.5,107.5 C 138.649,107.415 141.316,108.415 143.5,110.5C 140.458,110.267 137.792,109.267 135.5,107.5 Z"/></g>
<g><path style="opacity:0.346" fill="#acadaf" d="M 220.5,101.5 C 224.078,103.075 227.411,105.075 230.5,107.5C 239.342,108.167 248.342,108.833 257.5,109.5C 255.353,111.663 252.686,112.663 249.5,112.5C 251.277,111.4 253.277,110.566 255.5,110C 246.833,109.667 238.167,109.333 229.5,109C 227.9,107.185 225.9,106.018 223.5,105.5C 222.476,104.148 221.476,102.815 220.5,101.5 Z"/></g>
<g><path style="opacity:1" fill="#6d6f71" d="M 349.5,102.5 C 352.434,106.922 356.434,109.922 361.5,111.5C 362.211,113.03 363.211,114.363 364.5,115.5C 347.672,116.527 330.672,117.193 313.5,117.5C 310.032,114.772 306.032,113.105 301.5,112.5C 299.901,112.768 298.568,112.434 297.5,111.5C 297.082,110.778 296.416,110.278 295.5,110C 297.81,109.503 300.143,109.337 302.5,109.5C 302.649,108.448 302.483,107.448 302,106.5C 299.791,104.627 297.958,102.46 296.5,100C 314.161,100.617 331.827,101.45 349.5,102.5 Z"/></g>
<g><path style="opacity:0.239" fill="#b3b6b5" d="M 349.5,102.5 C 354.071,104.738 358.071,107.738 361.5,111.5C 356.434,109.922 352.434,106.922 349.5,102.5 Z"/></g>
<g><path style="opacity:0.137" fill="#b8bbba" d="M 129.5,105.5 C 113.796,107.51 98.463,111.177 83.5,116.5C 82.8333,116.5 82.1667,116.5 81.5,116.5C 81.6107,115.883 81.944,115.383 82.5,115C 96.6774,110.578 111.011,106.744 125.5,103.5C 127.171,103.668 128.504,104.335 129.5,105.5 Z"/></g>
<g><path style="opacity:0.529" fill="#b0b0b1" d="M 143.5,110.5 C 147.915,110.861 151.915,112.194 155.5,114.5C 152.673,114.416 150.006,113.75 147.5,112.5C 146.005,112.011 144.671,111.345 143.5,110.5 Z"/></g>
<g><path style="opacity:0.247" fill="#b8bab9" d="M 45.5,106.5 C 44.8485,109.152 43.1818,110.818 40.5,111.5C 53.0996,113.729 65.7662,115.395 78.5,116.5C 78.5,116.833 78.5,117.167 78.5,117.5C 65.3967,116.904 52.3967,115.404 39.5,113C 38.5494,112.282 38.3828,111.449 39,110.5C 40.9719,108.768 43.1386,107.435 45.5,106.5 Z"/></g>
<g><path style="opacity:1" fill="#959698" d="M 301.5,112.5 C 306.032,113.105 310.032,114.772 313.5,117.5C 309.099,116.594 305.099,114.928 301.5,112.5 Z"/></g>
<g><path style="opacity:0.695" fill="#8c8e90" d="M 364.5,115.5 C 365.043,115.56 365.376,115.893 365.5,116.5C 348.85,117.611 332.183,118.277 315.5,118.5C 314.508,118.672 313.842,118.338 313.5,117.5C 330.672,117.193 347.672,116.527 364.5,115.5 Z"/></g>
<g><path style="opacity:0.122" fill="#c0c1c3" d="M 361.5,111.5 C 365.12,112.57 366.787,114.737 366.5,118C 353.158,118.389 339.825,118.889 326.5,119.5C 322.629,119.815 318.962,119.482 315.5,118.5C 332.183,118.277 348.85,117.611 365.5,116.5C 365.376,115.893 365.043,115.56 364.5,115.5C 363.211,114.363 362.211,113.03 361.5,111.5 Z"/></g>
<g><path style="opacity:1" fill="#d9dadc" d="M 161.5,117.5 C 169.28,119.266 176.613,121.933 183.5,125.5C 176.641,123.197 169.641,121.03 162.5,119C 161.944,118.617 161.611,118.117 161.5,117.5 Z"/></g>
<g><path style="opacity:1" fill="#b1b2b4" d="M 236.5,117.5 C 233.855,119.31 230.855,120.31 227.5,120.5C 230.084,118.528 233.084,117.528 236.5,117.5 Z"/></g>
<g><path style="opacity:0.929" fill="#c1c1c3" d="M 227.5,120.5 C 225.727,121.892 223.727,123.059 221.5,124C 217.562,125.474 213.562,126.641 209.5,127.5C 211.273,126.108 213.273,124.941 215.5,124C 219.438,122.526 223.438,121.359 227.5,120.5 Z"/></g>
<g><path style="opacity:0.251" fill="#bcbdbc" d="M 36.5,125.5 C 32.3819,126.709 28.0485,127.376 23.5,127.5C 24.2625,126.732 25.2625,126.232 26.5,126C 29.8168,125.502 33.1501,125.335 36.5,125.5 Z"/></g>
<g><path style="opacity:0.176" fill="#b9babb" d="M 341.5,125.5 C 354.041,126.308 366.374,127.641 378.5,129.5C 366.955,129.044 355.455,128.044 344,126.5C 342.615,126.514 341.449,126.848 340.5,127.5C 336.53,126.021 336.863,125.354 341.5,125.5 Z"/></g>
<g><path style="opacity:0.992" fill="#8d8f90" d="M 36.5,125.5 C 36.8333,125.5 37.1667,125.5 37.5,125.5C 40.1667,125.5 42.8333,125.5 45.5,125.5C 38.0496,127.161 30.3829,128.328 22.5,129C 21.6266,130.045 20.6266,130.878 19.5,131.5C 19.8333,129.167 21.1667,127.833 23.5,127.5C 28.0485,127.376 32.3819,126.709 36.5,125.5 Z"/></g>
<g><path style="opacity:1" fill="#6c6f70" d="M 45.5,125.5 C 46.5,125.5 47.5,125.5 48.5,125.5C 48.5,131.833 48.5,138.167 48.5,144.5C 43.8809,143.686 39.2142,143.353 34.5,143.5C 34.1667,143.5 33.8333,143.5 33.5,143.5C 27.2256,142.415 20.8923,141.082 14.5,139.5C 16.6893,137.113 18.3559,134.447 19.5,131.5C 20.6266,130.878 21.6266,130.045 22.5,129C 30.3829,128.328 38.0496,127.161 45.5,125.5 Z"/></g>
<g><path style="opacity:0.114" fill="#cacdcc" d="M 49.5,144.5 C 49.8235,137.978 49.4902,131.645 48.5,125.5C 47.5,125.5 46.5,125.5 45.5,125.5C 42.8333,125.5 40.1667,125.5 37.5,125.5C 40.6649,124.678 43.9982,124.011 47.5,123.5C 48.4419,123.608 49.2753,123.941 50,124.5C 50.8206,131.346 50.654,138.013 49.5,144.5 Z"/></g>
<g><path style="opacity:0.341" fill="#b2b3b5" d="M 19.5,131.5 C 18.3559,134.447 16.6893,137.113 14.5,139.5C 20.8923,141.082 27.2256,142.415 33.5,143.5C 26.7755,143.326 20.1089,142.659 13.5,141.5C 14.2226,137.435 16.2226,134.101 19.5,131.5 Z"/></g>
<g><path style="opacity:1" fill="#6f7274" d="M 378.5,129.5 C 381.886,131.567 384.219,134.567 385.5,138.5C 385.539,139.583 385.873,140.583 386.5,141.5C 374.518,142.499 362.518,142.832 350.5,142.5C 350.815,138.629 350.482,134.962 349.5,131.5C 346.653,129.922 343.653,128.588 340.5,127.5C 341.449,126.848 342.615,126.514 344,126.5C 355.455,128.044 366.955,129.044 378.5,129.5 Z"/></g>
<g><path style="opacity:1" fill="#b0b3da" d="M 191.5,137.5 C 191.5,137.833 191.5,138.167 191.5,138.5C 189.901,138.232 188.568,138.566 187.5,139.5C 184.833,139.833 182.167,140.167 179.5,140.5C 179.611,139.883 179.944,139.383 180.5,139C 184.114,138.064 187.78,137.564 191.5,137.5 Z"/></g>
<g><path style="opacity:1" fill="#8688c1" d="M 211.5,139.5 C 211.5,139.167 211.5,138.833 211.5,138.5C 213.898,138.259 215.898,138.926 217.5,140.5C 215.435,140.483 213.435,140.15 211.5,139.5 Z"/></g>
<g><path style="opacity:0.034" fill="#dadbf9" d="M 191.5,136.5 C 193.265,135.539 195.265,135.205 197.5,135.5C 197.5,136.5 197.5,137.5 197.5,138.5C 197.829,151.011 197.495,163.345 196.5,175.5C 196.5,162.5 196.5,149.5 196.5,136.5C 194.833,136.5 193.167,136.5 191.5,136.5 Z"/></g>
<g><path style="opacity:1" fill="#24227c" d="M 211.5,139.5 C 213.435,140.15 215.435,140.483 217.5,140.5C 219.214,141.738 221.214,142.405 223.5,142.5C 223.5,142.833 223.5,143.167 223.5,143.5C 218.921,143.53 214.921,142.196 211.5,139.5 Z"/></g>
<g><path style="opacity:0.387" fill="#8c8dc3" d="M 191.5,137.5 C 191.5,137.167 191.5,136.833 191.5,136.5C 193.167,136.5 194.833,136.5 196.5,136.5C 196.5,149.5 196.5,162.5 196.5,175.5C 196.823,181.69 196.49,187.69 195.5,193.5C 195.5,174.833 195.5,156.167 195.5,137.5C 194.167,137.5 192.833,137.5 191.5,137.5 Z"/></g>
<g><path style="opacity:1" fill="#a6a7d0" d="M 335.5,139.5 C 335.5,139.833 335.5,140.167 335.5,140.5C 329.761,141.969 324.094,143.636 318.5,145.5C 315.848,145.41 313.515,146.076 311.5,147.5C 309.517,147.157 308.183,147.824 307.5,149.5C 306.167,149.5 304.833,149.5 303.5,149.5C 303.47,148.503 303.97,147.836 305,147.5C 315.021,143.954 325.188,141.287 335.5,139.5 Z"/></g>
<g><path style="opacity:1" fill="#05057d" d="M 211.5,139.5 C 214.921,142.196 218.921,143.53 223.5,143.5C 223.5,144.167 223.5,144.833 223.5,145.5C 227.601,146.481 231.601,147.981 235.5,150C 231.945,151.206 228.278,151.039 224.5,149.5C 223.614,150.325 223.281,151.325 223.5,152.5C 226.518,152.335 229.518,152.502 232.5,153C 241.145,154.615 249.645,156.782 258,159.5C 262.461,158.655 266.961,158.322 271.5,158.5C 272.964,159.16 274.631,159.493 276.5,159.5C 280.723,159.099 284.39,157.765 287.5,155.5C 288.167,154.833 288.833,154.167 289.5,153.5C 291.527,153.662 293.527,153.495 295.5,153C 298.025,151.281 300.692,150.114 303.5,149.5C 304.833,149.5 306.167,149.5 307.5,149.5C 309.483,149.843 310.817,149.176 311.5,147.5C 312.833,147.5 314.167,147.5 315.5,147.5C 322.406,147.532 329.073,146.365 335.5,144C 334.5,143.667 333.5,143.333 332.5,143C 333.571,142.148 334.571,141.315 335.5,140.5C 337.384,140.712 338.717,141.712 339.5,143.5C 340.666,159.823 340.833,176.156 340,192.5C 337.974,192.915 336.474,193.915 335.5,195.5C 330.348,194.803 325.682,195.803 321.5,198.5C 319.513,196.393 317.513,196.226 315.5,198C 315.957,198.414 316.291,198.914 316.5,199.5C 312.38,200.819 308.38,200.486 304.5,198.5C 304.167,199 303.833,199.5 303.5,200C 304.544,201.174 305.544,202.341 306.5,203.5C 306.5,204.167 306.167,204.5 305.5,204.5C 301.554,203.473 297.554,203.306 293.5,204C 285.882,208.822 277.548,211.322 268.5,211.5C 264.498,209.39 260.165,208.057 255.5,207.5C 251.097,205.592 246.43,204.259 241.5,203.5C 239.901,203.768 238.568,203.434 237.5,202.5C 235.243,200.44 232.576,198.94 229.5,198C 225.152,197.535 220.819,197.035 216.5,196.5C 213.896,192.734 210.229,191.067 205.5,191.5C 205.5,174.167 205.5,156.833 205.5,139.5C 207.5,139.5 209.5,139.5 211.5,139.5 Z"/></g>
<g><path style="opacity:1" fill="#c9c6e1" d="M 221.5,140.5 C 224.393,140.031 226.393,141.031 227.5,143.5C 226.167,143.5 224.833,143.5 223.5,143.5C 223.5,143.167 223.5,142.833 223.5,142.5C 222.833,141.833 222.167,141.167 221.5,140.5 Z"/></g>
<g><path style="opacity:1" fill="#8588c0" d="M 217.5,140.5 C 218.833,140.5 220.167,140.5 221.5,140.5C 222.167,141.167 222.833,141.833 223.5,142.5C 221.214,142.405 219.214,141.738 217.5,140.5 Z"/></g>
<g><path style="opacity:0.558" fill="#97999a" d="M 349.5,131.5 C 350.482,134.962 350.815,138.629 350.5,142.5C 362.518,142.832 374.518,142.499 386.5,141.5C 385.873,140.583 385.539,139.583 385.5,138.5C 388.192,139.591 388.858,141.257 387.5,143.5C 374.833,143.5 362.167,143.5 349.5,143.5C 349.5,139.5 349.5,135.5 349.5,131.5 Z"/></g>
<g><path style="opacity:1" fill="#06067d" d="M 63.5,140.5 C 67.7862,141.707 72.1195,142.707 76.5,143.5C 77.5,143.5 78.5,143.5 79.5,143.5C 82.2558,145.204 85.2558,146.537 88.5,147.5C 90.5145,148.924 92.8478,149.59 95.5,149.5C 98.1667,150.167 100.833,150.833 103.5,151.5C 105.792,153.267 108.458,154.267 111.5,154.5C 114.931,155.135 118.264,156.135 121.5,157.5C 123.705,159.916 125.705,159.916 127.5,157.5C 128.167,157.5 128.833,157.5 129.5,157.5C 134.479,156.431 139.146,154.765 143.5,152.5C 149.113,151.435 154.447,149.769 159.5,147.5C 160.167,147.5 160.833,147.5 161.5,147.5C 166.43,146.741 171.097,145.408 175.5,143.5C 176.448,142.022 177.781,141.022 179.5,140.5C 182.167,140.167 184.833,139.833 187.5,139.5C 189.722,139.178 191.556,139.845 193,141.5C 193.5,158.497 193.667,175.497 193.5,192.5C 189.259,192.848 185.259,194.015 181.5,196C 178.183,196.498 174.85,196.665 171.5,196.5C 171.5,197.5 171.5,198.5 171.5,199.5C 157.625,204.236 143.625,208.569 129.5,212.5C 126.833,212.5 124.167,212.5 121.5,212.5C 121.423,211.25 120.756,210.417 119.5,210C 114.744,209.443 110.077,208.61 105.5,207.5C 104.833,207.5 104.167,207.5 103.5,207.5C 99.8905,204.244 95.5572,202.91 90.5,203.5C 85.1647,200.059 79.1647,198.393 72.5,198.5C 69.2381,198.025 66.2381,197.025 63.5,195.5C 60.7552,194.832 58.2552,193.499 56,191.5C 55.167,174.157 55.3337,156.824 56.5,139.5C 58.7466,140.374 61.0799,140.708 63.5,140.5 Z"/></g>
<g><path style="opacity:1" fill="#c0bfd8" d="M 179.5,140.5 C 177.781,141.022 176.448,142.022 175.5,143.5C 174.5,143.5 173.5,143.5 172.5,143.5C 172.577,142.25 173.244,141.417 174.5,141C 176.134,140.506 177.801,140.34 179.5,140.5 Z"/></g>
<g><path style="opacity:1" fill="#696aa4" d="M 63.5,140.5 C 63.5,140.167 63.5,139.833 63.5,139.5C 64.8333,139.5 66.1667,139.5 67.5,139.5C 70.5,140.833 73.5,142.167 76.5,143.5C 72.1195,142.707 67.7862,141.707 63.5,140.5 Z"/></g>
<g><path style="opacity:1" fill="#c8cae8" d="M 67.5,139.5 C 71.9155,139.861 75.9155,141.194 79.5,143.5C 78.5,143.5 77.5,143.5 76.5,143.5C 73.5,142.167 70.5,140.833 67.5,139.5 Z"/></g>
<g><path style="opacity:1" fill="#0a086d" d="M 187.5,139.5 C 188.568,138.566 189.901,138.232 191.5,138.5C 192.5,138.5 193.5,138.5 194.5,138.5C 194.5,156.833 194.5,175.167 194.5,193.5C 193.209,193.263 192.209,193.596 191.5,194.5C 184.988,196.589 178.322,198.256 171.5,199.5C 171.5,198.5 171.5,197.5 171.5,196.5C 174.85,196.665 178.183,196.498 181.5,196C 185.259,194.015 189.259,192.848 193.5,192.5C 193.667,175.497 193.5,158.497 193,141.5C 191.556,139.845 189.722,139.178 187.5,139.5 Z"/></g>
<g><path style="opacity:0.934" fill="#323280" d="M 191.5,138.5 C 191.5,138.167 191.5,137.833 191.5,137.5C 192.833,137.5 194.167,137.5 195.5,137.5C 195.5,156.167 195.5,174.833 195.5,193.5C 195.158,194.338 194.492,194.672 193.5,194.5C 192.833,194.5 192.167,194.5 191.5,194.5C 192.209,193.596 193.209,193.263 194.5,193.5C 194.5,175.167 194.5,156.833 194.5,138.5C 193.5,138.5 192.5,138.5 191.5,138.5 Z"/></g>
<g><path style="opacity:0.851" fill="#414488" d="M 205.5,136.5 C 206.492,136.328 207.158,136.662 207.5,137.5C 206.5,137.5 205.5,137.5 204.5,137.5C 204.333,155.836 204.5,174.17 205,192.5C 205.995,193.066 206.828,193.733 207.5,194.5C 206.833,194.5 206.167,194.5 205.5,194.5C 204.508,194.672 203.842,194.338 203.5,193.5C 202.846,174.137 203.513,155.137 205.5,136.5 Z"/></g>
<g><path style="opacity:1" fill="#0f0e6d" d="M 207.5,137.5 C 208.568,138.434 209.901,138.768 211.5,138.5C 211.5,138.833 211.5,139.167 211.5,139.5C 209.5,139.5 207.5,139.5 205.5,139.5C 205.5,156.833 205.5,174.167 205.5,191.5C 210.229,191.067 213.896,192.734 216.5,196.5C 215.167,196.5 213.833,196.5 212.5,196.5C 211.07,195.463 209.403,194.796 207.5,194.5C 206.828,193.733 205.995,193.066 205,192.5C 204.5,174.17 204.333,155.836 204.5,137.5C 205.5,137.5 206.5,137.5 207.5,137.5 Z"/></g>
<g><path style="opacity:1" fill="#a0a3d9" d="M 228.5,143.5 C 230.898,143.259 232.898,143.926 234.5,145.5C 232.102,145.741 230.102,145.074 228.5,143.5 Z"/></g>
<g><path style="opacity:1" fill="#141276" d="M 335.5,140.5 C 334.571,141.315 333.571,142.148 332.5,143C 333.5,143.333 334.5,143.667 335.5,144C 329.073,146.365 322.406,147.532 315.5,147.5C 316.5,146.833 317.5,146.167 318.5,145.5C 324.094,143.636 329.761,141.969 335.5,140.5 Z"/></g>
<g><path style="opacity:1" fill="#070876" d="M 342.5,138.5 C 343.832,146.974 344.498,155.807 344.5,165C 344.447,174.659 343.781,184.159 342.5,193.5C 340.299,194.566 337.965,195.233 335.5,195.5C 336.474,193.915 337.974,192.915 340,192.5C 340.833,176.156 340.666,159.823 339.5,143.5C 338.717,141.712 337.384,140.712 335.5,140.5C 335.5,140.167 335.5,139.833 335.5,139.5C 337.764,138.781 340.097,138.448 342.5,138.5 Z"/></g>
<g><path style="opacity:0.048" fill="#d2d2d2" d="M 349.5,143.5 C 362.167,143.5 374.833,143.5 387.5,143.5C 375.098,144.176 362.598,144.842 350,145.5C 349.536,144.906 349.369,144.239 349.5,143.5 Z"/></g>
<g><path style="opacity:0.475" fill="#aaaaaa" d="M 48.5,125.5 C 49.4902,131.645 49.8235,137.978 49.5,144.5C 49.5299,145.497 49.0299,146.164 48,146.5C 43.3756,145.445 38.8756,144.445 34.5,143.5C 39.2142,143.353 43.8809,143.686 48.5,144.5C 48.5,138.167 48.5,131.833 48.5,125.5 Z"/></g>
<g><path style="opacity:1" fill="#a3a5cc" d="M 79.5,143.5 C 83.533,144.025 87.1996,145.358 90.5,147.5C 89.8333,147.5 89.1667,147.5 88.5,147.5C 85.2558,146.537 82.2558,145.204 79.5,143.5 Z"/></g>
<g><path style="opacity:1" fill="#aaaddb" d="M 170.5,143.5 C 167.5,144.833 164.5,146.167 161.5,147.5C 160.833,147.5 160.167,147.5 159.5,147.5C 162.626,145.01 166.292,143.677 170.5,143.5 Z"/></g>
<g><path style="opacity:1" fill="#41428f" d="M 170.5,143.5 C 171.167,143.5 171.833,143.5 172.5,143.5C 173.5,143.5 174.5,143.5 175.5,143.5C 171.097,145.408 166.43,146.741 161.5,147.5C 164.5,146.167 167.5,144.833 170.5,143.5 Z"/></g>
<g><path style="opacity:1" fill="#2e2c81" d="M 223.5,143.5 C 224.833,143.5 226.167,143.5 227.5,143.5C 227.833,143.5 228.167,143.5 228.5,143.5C 230.102,145.074 232.102,145.741 234.5,145.5C 234.833,146.167 235.167,146.833 235.5,147.5C 231.618,146.197 227.618,145.53 223.5,145.5C 223.5,144.833 223.5,144.167 223.5,143.5 Z"/></g>
<g><path style="opacity:1" fill="#151370" d="M 55.5,137.5 C 56.8333,137.5 58.1667,137.5 59.5,137.5C 60.8333,138.167 62.1667,138.833 63.5,139.5C 63.5,139.833 63.5,140.167 63.5,140.5C 61.0799,140.708 58.7466,140.374 56.5,139.5C 55.3337,156.824 55.167,174.157 56,191.5C 58.2552,193.499 60.7552,194.832 63.5,195.5C 60.5049,195.706 57.8383,195.04 55.5,193.5C 54.1752,174.736 54.1752,156.069 55.5,137.5 Z"/></g>
<g><path style="opacity:1" fill="#8b8ac5" d="M 234.5,145.5 C 236.781,145.077 238.448,145.744 239.5,147.5C 238.167,147.5 236.833,147.5 235.5,147.5C 235.167,146.833 234.833,146.167 234.5,145.5 Z"/></g>
<g><path style="opacity:1" fill="#4b4894" d="M 318.5,145.5 C 317.5,146.167 316.5,146.833 315.5,147.5C 314.167,147.5 312.833,147.5 311.5,147.5C 313.515,146.076 315.848,145.41 318.5,145.5 Z"/></g>
<g><path style="opacity:1" fill="#8080be" d="M 239.5,147.5 C 242.152,147.41 244.485,148.076 246.5,149.5C 243.848,149.59 241.515,148.924 239.5,147.5 Z"/></g>
<g><path style="opacity:0.846" fill="#2f317a" d="M 55.5,137.5 C 54.1752,156.069 54.1752,174.736 55.5,193.5C 54.8333,193.5 54.1667,193.5 53.5,193.5C 53.1671,174.488 53.5004,155.488 54.5,136.5C 55.1067,136.624 55.44,136.957 55.5,137.5 Z"/></g>
<g><path style="opacity:1" fill="#6060a4" d="M 88.5,147.5 C 89.1667,147.5 89.8333,147.5 90.5,147.5C 92.403,147.796 94.0697,148.463 95.5,149.5C 92.8478,149.59 90.5145,148.924 88.5,147.5 Z"/></g>
<g><path style="opacity:1" fill="#35307c" d="M 311.5,147.5 C 310.817,149.176 309.483,149.843 307.5,149.5C 308.183,147.824 309.517,147.157 311.5,147.5 Z"/></g>
<g><path style="opacity:1" fill="#a8acd5" d="M 247.5,149.5 C 250.428,149.565 253.095,150.232 255.5,151.5C 252.505,151.706 249.838,151.04 247.5,149.5 Z"/></g>
<g><path style="opacity:1" fill="#9394c5" d="M 159.5,147.5 C 154.447,149.769 149.113,151.435 143.5,152.5C 148.266,149.693 153.599,148.026 159.5,147.5 Z"/></g>
<g><path style="opacity:1" fill="#6c6f71" d="M 356.5,149.5 C 362.5,149.5 368.5,149.5 374.5,149.5C 374.833,149.5 375.167,149.5 375.5,149.5C 381.351,150.857 387.351,151.857 393.5,152.5C 394.165,156.999 395.832,160.999 398.5,164.5C 398.5,166.167 398.5,167.833 398.5,169.5C 382.5,169.5 366.5,169.5 350.5,169.5C 350.5,162.833 350.5,156.167 350.5,149.5C 352.5,149.5 354.5,149.5 356.5,149.5 Z"/></g>
<g><path style="opacity:0.31" fill="#adaeaf" d="M 375.5,149.5 C 379.514,149.334 383.514,149.501 387.5,150C 390.051,150.002 392.051,150.836 393.5,152.5C 387.351,151.857 381.351,150.857 375.5,149.5 Z"/></g>
<g><path style="opacity:0.217" fill="#9498c5" d="M 52.5,135.5 C 55.2282,135.171 57.5615,135.837 59.5,137.5C 58.1667,137.5 56.8333,137.5 55.5,137.5C 55.44,136.957 55.1067,136.624 54.5,136.5C 53.5004,155.488 53.1671,174.488 53.5,193.5C 52.503,174.341 52.1697,155.007 52.5,135.5 Z"/></g>
<g><path style="opacity:0.353" fill="#989acc" d="M 346.5,136.5 C 346.679,149.208 347.013,162.208 347.5,175.5C 347.07,181.859 346.403,188.193 345.5,194.5C 334.044,198.614 322.377,201.947 310.5,204.5C 311.167,203.833 311.833,203.167 312.5,202.5C 320.448,200.604 328.115,198.27 335.5,195.5C 337.965,195.233 340.299,194.566 342.5,193.5C 343.496,193.586 344.329,193.252 345,192.5C 345.5,174.17 345.667,155.836 345.5,137.5C 344.209,137.263 343.209,137.596 342.5,138.5C 340.097,138.448 337.764,138.781 335.5,139.5C 338.037,137.896 340.87,136.563 344,135.5C 344.902,135.743 345.735,136.077 346.5,136.5 Z"/></g>
<g><path style="opacity:0.058" fill="#d3d5d3" d="M 374.5,149.5 C 368.5,149.5 362.5,149.5 356.5,149.5C 354.393,148.532 352.059,148.198 349.5,148.5C 349.5,155.833 349.5,163.167 349.5,170.5C 365.833,170.5 382.167,170.5 398.5,170.5C 382.431,171.174 366.265,171.84 350,172.5C 348.531,164.003 348.031,155.336 348.5,146.5C 357.297,147.598 365.964,148.598 374.5,149.5 Z"/></g>
<g><path style="opacity:0.294" fill="#b6b8b8" d="M 26.5,151.5 C 20.3336,152.476 14.0002,153.309 7.5,154C 6.62656,155.045 5.62656,155.878 4.5,156.5C 4.51056,154.983 5.17723,153.816 6.5,153C 13.1276,151.948 19.7943,151.448 26.5,151.5 Z"/></g>
<g><path style="opacity:1" fill="#7978b1" d="M 103.5,151.5 C 106.649,151.415 109.316,152.415 111.5,154.5C 108.458,154.267 105.792,153.267 103.5,151.5 Z"/></g>
<g><path style="opacity:1" fill="#7576b0" d="M 255.5,152.5 C 258.903,152.851 262.237,153.518 265.5,154.5C 266.5,155.167 267.5,155.833 268.5,156.5C 263.835,155.943 259.502,154.61 255.5,152.5 Z"/></g>
<g><path style="opacity:1" fill="#8f91c3" d="M 303.5,149.5 C 300.692,150.114 298.025,151.281 295.5,153C 293.527,153.495 291.527,153.662 289.5,153.5C 293.759,151.054 298.426,149.721 303.5,149.5 Z"/></g>
<g><path style="opacity:1" fill="#7777b3" d="M 143.5,152.5 C 139.146,154.765 134.479,156.431 129.5,157.5C 129.5,157.167 129.5,156.833 129.5,156.5C 134.045,154.79 138.712,153.457 143.5,152.5 Z"/></g>
<g><path style="opacity:1" fill="#0d0b78" d="M 223.5,145.5 C 227.618,145.53 231.618,146.197 235.5,147.5C 236.833,147.5 238.167,147.5 239.5,147.5C 241.515,148.924 243.848,149.59 246.5,149.5C 246.833,149.5 247.167,149.5 247.5,149.5C 249.838,151.04 252.505,151.706 255.5,151.5C 255.5,151.833 255.5,152.167 255.5,152.5C 259.502,154.61 263.835,155.943 268.5,156.5C 269.5,157.167 270.5,157.833 271.5,158.5C 266.961,158.322 262.461,158.655 258,159.5C 249.645,156.782 241.145,154.615 232.5,153C 229.518,152.502 226.518,152.335 223.5,152.5C 223.281,151.325 223.614,150.325 224.5,149.5C 228.278,151.039 231.945,151.206 235.5,150C 231.601,147.981 227.601,146.481 223.5,145.5 Z"/></g>
<g><path style="opacity:1" fill="#cdcfe8" d="M 289.5,153.5 C 288.833,154.167 288.167,154.833 287.5,155.5C 284.097,155.851 280.763,156.518 277.5,157.5C 274.518,157.037 271.518,156.704 268.5,156.5C 267.5,155.833 266.5,155.167 265.5,154.5C 273.61,156.003 281.61,155.67 289.5,153.5 Z"/></g>
<g><path style="opacity:1" fill="#b9bbe2" d="M 111.5,154.5 C 117.547,154.776 123.547,155.443 129.5,156.5C 129.5,156.833 129.5,157.167 129.5,157.5C 128.833,157.5 128.167,157.5 127.5,157.5C 125.5,157.5 123.5,157.5 121.5,157.5C 118.264,156.135 114.931,155.135 111.5,154.5 Z"/></g>
<g><path style="opacity:1" fill="#8285c0" d="M 268.5,156.5 C 271.518,156.704 274.518,157.037 277.5,157.5C 275.735,158.461 273.735,158.795 271.5,158.5C 270.5,157.833 269.5,157.167 268.5,156.5 Z"/></g>
<g><path style="opacity:1" fill="#2d2c80" d="M 287.5,155.5 C 284.39,157.765 280.723,159.099 276.5,159.5C 274.631,159.493 272.964,159.16 271.5,158.5C 273.735,158.795 275.735,158.461 277.5,157.5C 280.763,156.518 284.097,155.851 287.5,155.5 Z"/></g>
<g><path style="opacity:1" fill="#6d7071" d="M 26.5,151.5 C 27.5,151.5 28.5,151.5 29.5,151.5C 35.8333,151.5 42.1667,151.5 48.5,151.5C 48.5,158.5 48.5,165.5 48.5,172.5C 40.5702,171.187 32.5702,170.52 24.5,170.5C 23.8333,170.5 23.1667,170.5 22.5,170.5C 16.2989,169.302 9.96557,168.135 3.5,167C 2.94149,166.275 2.60816,165.442 2.5,164.5C 3.76199,161.978 4.42865,159.311 4.5,156.5C 5.62656,155.878 6.62656,155.045 7.5,154C 14.0002,153.309 20.3336,152.476 26.5,151.5 Z"/></g>
<g><path style="opacity:1" fill="#564fab" d="M 121.5,157.5 C 123.5,157.5 125.5,157.5 127.5,157.5C 125.705,159.916 123.705,159.916 121.5,157.5 Z"/></g>
<g><path style="opacity:0.498" fill="#a6a8aa" d="M 393.5,152.5 C 394.79,153.058 395.623,154.058 396,155.5C 397.43,158.353 398.263,161.353 398.5,164.5C 395.832,160.999 394.165,156.999 393.5,152.5 Z"/></g>
<g><path style="opacity:0.25" fill="#999cc4" d="M 205.5,136.5 C 203.513,155.137 202.846,174.137 203.5,193.5C 202.503,175.674 202.17,157.674 202.5,139.5C 202.5,138.167 202.5,136.833 202.5,135.5C 203.791,135.263 204.791,135.596 205.5,136.5 Z"/></g>
<g><path style="opacity:0.394" fill="#a9aaab" d="M 4.5,156.5 C 4.42865,159.311 3.76199,161.978 2.5,164.5C 2.60816,165.442 2.94149,166.275 3.5,167C 9.96557,168.135 16.2989,169.302 22.5,170.5C 15.4116,170.406 8.41158,169.572 1.5,168C 0.446361,166.612 0.279695,165.112 1,163.5C 1.89837,160.931 3.06504,158.598 4.5,156.5 Z"/></g>
<g><path style="opacity:0.536" fill="#97989a" d="M 356.5,149.5 C 354.5,149.5 352.5,149.5 350.5,149.5C 350.5,156.167 350.5,162.833 350.5,169.5C 366.5,169.5 382.5,169.5 398.5,169.5C 398.5,167.833 398.5,166.167 398.5,164.5C 398.833,164.5 399.167,164.5 399.5,164.5C 399.5,166.5 399.5,168.5 399.5,170.5C 399.167,170.5 398.833,170.5 398.5,170.5C 382.167,170.5 365.833,170.5 349.5,170.5C 349.5,163.167 349.5,155.833 349.5,148.5C 352.059,148.198 354.393,148.532 356.5,149.5 Z"/></g>
<g><path style="opacity:0.953" fill="#292881" d="M 342.5,138.5 C 343.209,137.596 344.209,137.263 345.5,137.5C 345.667,155.836 345.5,174.17 345,192.5C 344.329,193.252 343.496,193.586 342.5,193.5C 343.781,184.159 344.447,174.659 344.5,165C 344.498,155.807 343.832,146.974 342.5,138.5 Z"/></g>
<g><path style="opacity:0.631" fill="#b0b1b1" d="M 24.5,170.5 C 32.5702,170.52 40.5702,171.187 48.5,172.5C 48.5,165.5 48.5,158.5 48.5,151.5C 42.1667,151.5 35.8333,151.5 29.5,151.5C 35.3959,150.741 41.3959,149.741 47.5,148.5C 48.1667,148.833 48.8333,149.167 49.5,149.5C 50.6334,157.117 50.8001,164.784 50,172.5C 49.3261,173.578 48.3261,174.245 47,174.5C 39.337,173.291 31.837,171.958 24.5,170.5 Z"/></g>
<g><path style="opacity:1" fill="#6d7071" d="M -0.5,177.5 C 0.391047,178.11 1.39105,178.443 2.5,178.5C 17.8333,178.5 33.1667,178.5 48.5,178.5C 48.5,185.167 48.5,191.833 48.5,198.5C 41.8407,198.046 35.1741,197.713 28.5,197.5C 24.7307,197.756 21.0641,197.423 17.5,196.5C 11.6985,195.318 5.6985,194.652 -0.5,194.5C -0.5,188.833 -0.5,183.167 -0.5,177.5 Z"/></g>
<g><path style="opacity:0.082" fill="#daddda" d="M 362.5,176.5 C 358.167,176.5 353.833,176.5 349.5,176.5C 349.5,182.5 349.5,188.5 349.5,194.5C 348.346,188.013 348.179,181.346 349,174.5C 349.333,174.167 349.667,173.833 350,173.5C 354.134,174.986 358.301,175.986 362.5,176.5 Z"/></g>
<g><path style="opacity:1" fill="#6c7071" d="M 399.5,180.5 C 399.5,185.167 399.5,189.833 399.5,194.5C 383.167,194.5 366.833,194.5 350.5,194.5C 350.5,188.833 350.5,183.167 350.5,177.5C 366.879,177.935 383.212,178.935 399.5,180.5 Z"/></g>
<g><path style="opacity:0.425" fill="#aaabab" d="M 28.5,197.5 C 35.1741,197.713 41.8407,198.046 48.5,198.5C 48.5,191.833 48.5,185.167 48.5,178.5C 33.1667,178.5 17.8333,178.5 2.5,178.5C 18.0018,177.632 33.6684,176.965 49.5,176.5C 50.6759,181.047 50.6759,185.547 49.5,190C 50.2744,192.405 50.7744,194.905 51,197.5C 54.3946,199.294 54.0613,200.294 50,200.5C 42.64,199.853 35.4733,198.853 28.5,197.5 Z"/></g>
<g><path style="opacity:0.396" fill="#b3b4b5" d="M -0.5,195.5 C -0.5,195.167 -0.5,194.833 -0.5,194.5C 5.6985,194.652 11.6985,195.318 17.5,196.5C 11.4836,196.407 5.48356,196.074 -0.5,195.5 Z"/></g>
<g><path style="opacity:0.118" fill="#8d8ec1" d="M 53.5,193.5 C 54.1667,193.5 54.8333,193.5 55.5,193.5C 57.8383,195.04 60.5049,195.706 63.5,195.5C 66.2381,197.025 69.2381,198.025 72.5,198.5C 73.5,199.167 74.5,199.833 75.5,200.5C 69.4409,199.319 63.4409,197.819 57.5,196C 55.6803,195.8 54.347,194.966 53.5,193.5 Z"/></g>
<g><path style="opacity:0.541" fill="#8385c3" d="M 205.5,194.5 C 206.167,194.5 206.833,194.5 207.5,194.5C 209.403,194.796 211.07,195.463 212.5,196.5C 209.848,196.59 207.515,195.924 205.5,194.5 Z"/></g>
<g><path style="opacity:0.4" fill="#b0b1b2" d="M 362.5,176.5 C 374.934,176.888 387.267,177.888 399.5,179.5C 399.5,179.833 399.5,180.167 399.5,180.5C 383.212,178.935 366.879,177.935 350.5,177.5C 350.5,183.167 350.5,188.833 350.5,194.5C 366.833,194.5 383.167,194.5 399.5,194.5C 399.5,194.833 399.5,195.167 399.5,195.5C 383.719,195.352 367.886,195.686 352,196.5C 350.699,196.361 349.866,195.695 349.5,194.5C 349.5,188.5 349.5,182.5 349.5,176.5C 353.833,176.5 358.167,176.5 362.5,176.5 Z"/></g>
<g><path style="opacity:0.584" fill="#8788c1" d="M 212.5,196.5 C 213.833,196.5 215.167,196.5 216.5,196.5C 219.833,197.833 223.167,199.167 226.5,200.5C 221.471,200.08 216.805,198.746 212.5,196.5 Z"/></g>
<g><path style="opacity:1" fill="#201d7c" d="M 216.5,196.5 C 220.819,197.035 225.152,197.535 229.5,198C 232.576,198.94 235.243,200.44 237.5,202.5C 236.167,202.5 234.833,202.5 233.5,202.5C 231.485,201.076 229.152,200.41 226.5,200.5C 223.167,199.167 219.833,197.833 216.5,196.5 Z"/></g>
<g><path style="opacity:1" fill="#342c83" d="M 72.5,198.5 C 79.1647,198.393 85.1647,200.059 90.5,203.5C 89.1667,203.5 87.8333,203.5 86.5,203.5C 84.4855,202.076 82.1522,201.41 79.5,201.5C 77.901,201.768 76.5676,201.434 75.5,200.5C 74.5,199.833 73.5,199.167 72.5,198.5 Z"/></g>
<g><path style="opacity:1" fill="#0f0e76" d="M 335.5,195.5 C 328.115,198.27 320.448,200.604 312.5,202.5C 310.5,202.833 308.5,203.167 306.5,203.5C 305.544,202.341 304.544,201.174 303.5,200C 303.833,199.5 304.167,199 304.5,198.5C 308.38,200.486 312.38,200.819 316.5,199.5C 316.291,198.914 315.957,198.414 315.5,198C 317.513,196.226 319.513,196.393 321.5,198.5C 325.682,195.803 330.348,194.803 335.5,195.5 Z"/></g>
<g><path style="opacity:0.471" fill="#8385b8" d="M 79.5,201.5 C 82.1522,201.41 84.4855,202.076 86.5,203.5C 83.8478,203.59 81.5145,202.924 79.5,201.5 Z"/></g>
<g><path style="opacity:0.282" fill="#8185b7" d="M 226.5,200.5 C 229.152,200.41 231.485,201.076 233.5,202.5C 230.848,202.59 228.515,201.924 226.5,200.5 Z"/></g>
<g><path style="opacity:0.176" fill="#b8b9ba" d="M 398.5,205.5 C 378.979,204.68 359.479,203.347 340,201.5C 336.195,201.304 332.695,201.97 329.5,203.5C 328.167,203.5 326.833,203.5 325.5,203.5C 329.492,201.394 333.826,200.06 338.5,199.5C 358.637,201.647 378.637,203.647 398.5,205.5 Z"/></g>
<g><path style="opacity:0.133" fill="#c1c2c3" d="M -0.5,202.5 C -0.5,202.167 -0.5,201.833 -0.5,201.5C 18.029,202.252 36.529,202.252 55,201.5C 59.9804,202.093 64.8137,202.76 69.5,203.5C 61.8333,203.5 54.1667,203.5 46.5,203.5C 30.8257,203.455 15.1591,203.122 -0.5,202.5 Z"/></g>
<g><path style="opacity:0.471" fill="#8486bc" d="M 233.5,202.5 C 234.833,202.5 236.167,202.5 237.5,202.5C 238.568,203.434 239.901,203.768 241.5,203.5C 244.5,204.833 247.5,206.167 250.5,207.5C 244.567,206.408 238.9,204.741 233.5,202.5 Z"/></g>
<g><path style="opacity:0.608" fill="#9e9fa0" d="M 46.5,203.5 C 54.1667,203.5 61.8333,203.5 69.5,203.5C 72.1522,203.41 74.4855,204.076 76.5,205.5C 66.3397,204.997 56.3397,204.33 46.5,203.5 Z"/></g>
<g><path style="opacity:0.451" fill="#9193c8" d="M 86.5,203.5 C 87.8333,203.5 89.1667,203.5 90.5,203.5C 94.6127,205.283 98.946,206.616 103.5,207.5C 104.167,207.5 104.833,207.5 105.5,207.5C 108.254,208.641 110.921,209.975 113.5,211.5C 104.088,209.901 95.0882,207.234 86.5,203.5 Z"/></g>
<g><path style="opacity:1" fill="#201f75" d="M 90.5,203.5 C 95.5572,202.91 99.8905,204.244 103.5,207.5C 98.946,206.616 94.6127,205.283 90.5,203.5 Z"/></g>
<g><path style="opacity:1" fill="#2e2f84" d="M 241.5,203.5 C 246.43,204.259 251.097,205.592 255.5,207.5C 253.833,207.5 252.167,207.5 250.5,207.5C 247.5,206.167 244.5,204.833 241.5,203.5 Z"/></g>
<g><path style="opacity:0.435" fill="#7572b7" d="M 312.5,202.5 C 311.833,203.167 311.167,203.833 310.5,204.5C 308.401,205.612 306.067,206.279 303.5,206.5C 304.167,205.833 304.833,205.167 305.5,204.5C 306.167,204.5 306.5,204.167 306.5,203.5C 308.5,203.167 310.5,202.833 312.5,202.5 Z"/></g>
<g><path style="opacity:1" fill="#6c7071" d="M -0.5,202.5 C 15.1591,203.122 30.8257,203.455 46.5,203.5C 56.3397,204.33 66.3397,204.997 76.5,205.5C 79.4282,205.565 82.0948,206.232 84.5,207.5C 91.5676,210.072 98.9009,212.072 106.5,213.5C 97.9501,213.845 89.6168,214.845 81.5,216.5C 80.4161,219.004 79.0828,221.337 77.5,223.5C 76.5222,223.811 75.8555,224.478 75.5,225.5C 73.5,225.833 71.5,226.167 69.5,226.5C 46.2383,223.763 22.9049,221.763 -0.5,220.5C -0.5,214.5 -0.5,208.5 -0.5,202.5 Z"/></g>
<g><path style="opacity:0.373" fill="#8789bb" d="M 250.5,207.5 C 252.167,207.5 253.833,207.5 255.5,207.5C 258.5,208.833 261.5,210.167 264.5,211.5C 259.57,210.741 254.903,209.408 250.5,207.5 Z"/></g>
<g><path style="opacity:1" fill="#2d2d85" d="M 255.5,207.5 C 260.165,208.057 264.498,209.39 268.5,211.5C 267.167,211.5 265.833,211.5 264.5,211.5C 261.5,210.167 258.5,208.833 255.5,207.5 Z"/></g>
<g><path style="opacity:0.239" fill="#989acd" d="M 303.5,206.5 C 298.506,208.941 293.172,210.607 287.5,211.5C 287.5,211.167 287.5,210.833 287.5,210.5C 292.43,208.042 297.763,206.708 303.5,206.5 Z"/></g>
<g><path style="opacity:1" fill="#181478" d="M 305.5,204.5 C 304.833,205.167 304.167,205.833 303.5,206.5C 297.763,206.708 292.43,208.042 287.5,210.5C 284.918,210.025 282.918,210.692 281.5,212.5C 279.152,212.67 276.818,213.003 274.5,213.5C 272.201,213.401 270.201,212.734 268.5,211.5C 277.548,211.322 285.882,208.822 293.5,204C 297.554,203.306 301.554,203.473 305.5,204.5 Z"/></g>
<g><path style="opacity:0.361" fill="#c9cbc8" d="M 84.5,207.5 C 93.325,208.062 101.658,210.229 109.5,214C 106.794,216.597 103.794,217.097 100.5,215.5C 102.924,215.808 105.257,215.474 107.5,214.5C 107.376,213.893 107.043,213.56 106.5,213.5C 98.9009,212.072 91.5676,210.072 84.5,207.5 Z"/></g>
<g><path style="opacity:1" fill="#25207d" d="M 105.5,207.5 C 110.077,208.61 114.744,209.443 119.5,210C 120.756,210.417 121.423,211.25 121.5,212.5C 118.833,212.167 116.167,211.833 113.5,211.5C 110.921,209.975 108.254,208.641 105.5,207.5 Z"/></g>
<g><path style="opacity:0.812" fill="#716fb3" d="M 287.5,210.5 C 287.5,210.833 287.5,211.167 287.5,211.5C 286.432,212.434 285.099,212.768 283.5,212.5C 282.833,212.5 282.167,212.5 281.5,212.5C 282.918,210.692 284.918,210.025 287.5,210.5 Z"/></g>
<g><path style="opacity:0.498" fill="#9e9ed1" d="M 113.5,211.5 C 116.167,211.833 118.833,212.167 121.5,212.5C 122.167,213.167 122.833,213.833 123.5,214.5C 119.884,214.101 116.55,213.101 113.5,211.5 Z"/></g>
<g><path style="opacity:0.855" fill="#969995" d="M 325.5,203.5 C 326.833,203.5 328.167,203.5 329.5,203.5C 320.613,205.406 311.947,208.24 303.5,212C 298.146,213.172 292.813,214.339 287.5,215.5C 288.5,214.833 289.5,214.167 290.5,213.5C 301.94,209.72 313.607,206.387 325.5,203.5 Z"/></g>
<g><path style="opacity:0.153" fill="#a9aaad" d="M 106.5,213.5 C 107.043,213.56 107.376,213.893 107.5,214.5C 105.257,215.474 102.924,215.808 100.5,215.5C 94.077,215.209 87.7436,215.542 81.5,216.5C 89.6168,214.845 97.9501,213.845 106.5,213.5 Z"/></g>
<g><path style="opacity:0.255" fill="#959ac4" d="M 268.5,215.5 C 264.833,216.833 261.167,218.167 257.5,219.5C 257.167,219.5 256.833,219.5 256.5,219.5C 255.167,219.5 253.833,219.5 252.5,219.5C 257.503,217.294 262.836,215.961 268.5,215.5 Z"/></g>
<g><path style="opacity:1" fill="#353882" d="M 268.5,215.5 C 270.415,215.216 272.081,215.549 273.5,216.5C 271.901,216.232 270.568,216.566 269.5,217.5C 265.524,218.295 261.524,218.962 257.5,219.5C 261.167,218.167 264.833,216.833 268.5,215.5 Z"/></g>
<g><path style="opacity:1" fill="#05057d" d="M 127.5,217.5 C 129.167,217.5 130.833,217.5 132.5,217.5C 147.154,220.353 161.488,224.02 175.5,228.5C 177.255,229.792 179.255,230.792 181.5,231.5C 179.977,233.283 177.977,233.949 175.5,233.5C 175.5,232.5 175.5,231.5 175.5,230.5C 155.025,230.448 154.691,231.948 174.5,235C 178.123,237.909 182.123,238.242 186.5,236C 185.692,235.692 185.025,235.192 184.5,234.5C 188.004,232.218 191.671,231.884 195.5,233.5C 195.33,234.822 195.663,235.989 196.5,237C 200.322,237.585 203.989,237.085 207.5,235.5C 207.5,236.833 207.5,238.167 207.5,239.5C 210.809,239.692 213.309,238.359 215,235.5C 215.333,236.167 215.667,236.833 216,237.5C 218.288,237.263 220.788,237.263 223.5,237.5C 223.5,236.5 223.5,235.5 223.5,234.5C 228.884,233.821 234.217,232.821 239.5,231.5C 232.575,229.878 225.909,230.545 219.5,233.5C 218.167,233.167 216.833,232.833 215.5,232.5C 218.341,231.292 221.007,229.959 223.5,228.5C 224.209,227.596 225.209,227.263 226.5,227.5C 231.43,227.627 235.763,226.293 239.5,223.5C 240.5,223.5 241.5,223.5 242.5,223.5C 247.529,223.08 252.195,221.746 256.5,219.5C 256.833,219.5 257.167,219.5 257.5,219.5C 261.524,218.962 265.524,218.295 269.5,217.5C 270.496,217.414 271.329,217.748 272,218.5C 272.5,236.164 272.667,253.83 272.5,271.5C 272.167,271.5 271.833,271.5 271.5,271.5C 264.492,271.334 257.492,271.5 250.5,272C 253.044,273.092 255.711,273.759 258.5,274C 258.167,274.333 257.833,274.667 257.5,275C 249.819,275.309 242.152,275.309 234.5,275C 236.167,276.167 237.833,277.333 239.5,278.5C 235.086,279.409 231.086,281.075 227.5,283.5C 222.28,284.09 217.28,285.424 212.5,287.5C 205.479,288.458 198.479,288.458 191.5,287.5C 189.889,285.905 187.889,284.739 185.5,284C 181.5,283.667 177.5,283.333 173.5,283C 172.027,282.29 171.36,281.124 171.5,279.5C 178.032,279.855 184.698,280.521 191.5,281.5C 191.5,280.167 191.5,278.833 191.5,277.5C 186.474,277.589 181.474,277.255 176.5,276.5C 170.269,278.146 163.936,279.146 157.5,279.5C 156.067,278.167 154.733,276.667 153.5,275C 151.5,274.667 149.5,274.333 147.5,274C 146.167,273.333 146.167,272.667 147.5,272C 145.336,271.567 143.336,272.067 141.5,273.5C 136.65,271.781 131.65,270.781 126.5,270.5C 126.181,252.757 126.514,235.09 127.5,217.5 Z"/></g>
<g><path style="opacity:1" fill="#363488" d="M 252.5,219.5 C 253.833,219.5 255.167,219.5 256.5,219.5C 252.195,221.746 247.529,223.08 242.5,223.5C 245.778,222.043 249.111,220.71 252.5,219.5 Z"/></g>
<g><path style="opacity:0.231" fill="#9494c7" d="M 252.5,219.5 C 249.111,220.71 245.778,222.043 242.5,223.5C 241.5,223.5 240.5,223.5 239.5,223.5C 238.833,223.5 238.167,223.5 237.5,223.5C 242.126,221.168 247.126,219.835 252.5,219.5 Z"/></g>
<g><path style="opacity:0.624" fill="#999c9b" d="M 317.5,220.5 C 312.125,220.172 306.792,220.505 301.5,221.5C 304.428,222.484 307.428,222.817 310.5,222.5C 314.042,222.187 317.375,222.521 320.5,223.5C 310.17,224.323 300.17,223.157 290.5,220C 299.639,218.563 308.639,218.73 317.5,220.5 Z"/></g>
<g><path style="opacity:0.569" fill="#b4b7b8" d="M 366.5,222.5 C 377.5,222.5 388.5,222.5 399.5,222.5C 399.5,223.167 399.5,223.833 399.5,224.5C 388.338,224.01 377.338,223.343 366.5,222.5 Z"/></g>
<g><path style="opacity:0.106" fill="#cdcec9" d="M 290.5,213.5 C 289.5,214.167 288.5,214.833 287.5,215.5C 284.557,215.98 281.89,216.98 279.5,218.5C 278.506,227.652 278.173,236.985 278.5,246.5C 277.342,237.009 277.175,227.342 278,217.5C 281.876,215.264 286.042,213.93 290.5,213.5 Z"/></g>
<g><path style="opacity:1" fill="#6c7071" d="M 398.5,205.5 C 398.833,205.5 399.167,205.5 399.5,205.5C 399.5,211.167 399.5,216.833 399.5,222.5C 388.5,222.5 377.5,222.5 366.5,222.5C 355.15,222.593 343.817,222.259 332.5,221.5C 327.695,220.513 322.695,220.179 317.5,220.5C 308.639,218.73 299.639,218.563 290.5,220C 300.17,223.157 310.17,224.323 320.5,223.5C 320.833,223.5 321.167,223.5 321.5,223.5C 335.676,225.295 350.009,227.128 364.5,229C 376.127,230.459 387.793,231.292 399.5,231.5C 399.5,232.833 399.5,234.167 399.5,235.5C 398.128,237.089 396.461,238.422 394.5,239.5C 395.78,241.702 395.78,243.868 394.5,246C 356.168,246.5 317.835,246.667 279.5,246.5C 279.5,237.167 279.5,227.833 279.5,218.5C 281.89,216.98 284.557,215.98 287.5,215.5C 292.813,214.339 298.146,213.172 303.5,212C 311.947,208.24 320.613,205.406 329.5,203.5C 332.695,201.97 336.195,201.304 340,201.5C 359.479,203.347 378.979,204.68 398.5,205.5 Z"/></g>
<g><path style="opacity:0.035" fill="#b9bcbd" d="M 317.5,220.5 C 322.695,220.179 327.695,220.513 332.5,221.5C 324.981,221.175 317.648,221.508 310.5,222.5C 307.428,222.817 304.428,222.484 301.5,221.5C 306.792,220.505 312.125,220.172 317.5,220.5 Z"/></g>
<g><path style="opacity:0.792" fill="#98999b" d="M -0.5,220.5 C 22.9049,221.763 46.2383,223.763 69.5,226.5C 71.5,226.167 73.5,225.833 75.5,225.5C 75.8555,224.478 76.5222,223.811 77.5,223.5C 77.3252,225.844 76.1585,227.511 74,228.5C 49.2441,226.172 24.4108,224.172 -0.5,222.5C -0.5,221.833 -0.5,221.167 -0.5,220.5 Z"/></g>
<g><path style="opacity:0.537" fill="#797ab5" d="M 191.5,194.5 C 192.167,194.5 192.833,194.5 193.5,194.5C 172.588,201.136 151.588,207.803 130.5,214.5C 150.831,220.285 171.165,225.618 191.5,230.5C 188.763,230.599 186.096,230.265 183.5,229.5C 180.794,229.425 178.127,229.092 175.5,228.5C 161.488,224.02 147.154,220.353 132.5,217.5C 131.081,216.549 129.415,216.216 127.5,216.5C 127.527,214.801 128.194,213.467 129.5,212.5C 143.625,208.569 157.625,204.236 171.5,199.5C 178.322,198.256 184.988,196.589 191.5,194.5 Z"/></g>
<g><path style="opacity:0.306" fill="#abadae" d="M 321.5,223.5 C 347.553,225.282 373.553,227.615 399.5,230.5C 399.5,230.833 399.5,231.167 399.5,231.5C 387.793,231.292 376.127,230.459 364.5,229C 350.009,227.128 335.676,225.295 321.5,223.5 Z"/></g>
<g><path style="opacity:0.992" fill="#2a297c" d="M 236.5,223.5 C 236.833,223.5 237.167,223.5 237.5,223.5C 238.167,223.5 238.833,223.5 239.5,223.5C 235.763,226.293 231.43,227.627 226.5,227.5C 229.833,226.167 233.167,224.833 236.5,223.5 Z"/></g>
<g><path style="opacity:0.341" fill="#8082b9" d="M 236.5,223.5 C 233.167,224.833 229.833,226.167 226.5,227.5C 225.209,227.263 224.209,227.596 223.5,228.5C 219.922,228.549 216.589,229.215 213.5,230.5C 212.167,230.5 210.833,230.5 209.5,230.5C 218.275,227.722 227.275,225.389 236.5,223.5 Z"/></g>
<g><path style="opacity:0.426" fill="#b2b3b4" d="M 120.5,241.5 C 120.777,238.552 120.444,235.719 119.5,233C 80.1736,231.926 40.8403,231.426 1.5,231.5C 2.37386,234.789 3.04053,238.123 3.5,241.5C 1.97475,238.921 0.641417,236.254 -0.5,233.5C -0.5,232.5 -0.5,231.5 -0.5,230.5C 3.25142,229.867 7.08475,229.533 11,229.5C 47.1767,230.768 83.3434,231.268 119.5,231C 121.028,232.648 121.695,234.648 121.5,237C 121.492,238.707 121.158,240.207 120.5,241.5 Z"/></g>
<g><path style="opacity:1" fill="#6d7072" d="M 120.5,241.5 C 120.5,241.833 120.5,242.167 120.5,242.5C 104.167,242.5 87.8333,242.5 71.5,242.5C 71.0578,246.154 70.7244,249.821 70.5,253.5C 66.5,253.5 62.5,253.5 58.5,253.5C 51.0692,253.37 43.7359,252.703 36.5,251.5C 36.3893,250.883 36.056,250.383 35.5,250C 25.8478,248.937 16.1812,248.104 6.5,247.5C 6.00751,245.181 5.00751,243.181 3.5,241.5C 3.04053,238.123 2.37386,234.789 1.5,231.5C 40.8403,231.426 80.1736,231.926 119.5,233C 120.444,235.719 120.777,238.552 120.5,241.5 Z"/></g>
<g><path style="opacity:1" fill="#080978" d="M 175.5,228.5 C 178.127,229.092 180.794,229.425 183.5,229.5C 183.611,230.117 183.944,230.617 184.5,231C 186.81,231.497 189.143,231.663 191.5,231.5C 194.698,232.787 198.031,233.453 201.5,233.5C 205.596,232.492 209.596,231.492 213.5,230.5C 216.589,229.215 219.922,228.549 223.5,228.5C 221.007,229.959 218.341,231.292 215.5,232.5C 216.833,232.833 218.167,233.167 219.5,233.5C 225.909,230.545 232.575,229.878 239.5,231.5C 234.217,232.821 228.884,233.821 223.5,234.5C 223.5,235.5 223.5,236.5 223.5,237.5C 220.788,237.263 218.288,237.263 216,237.5C 215.667,236.833 215.333,236.167 215,235.5C 213.309,238.359 210.809,239.692 207.5,239.5C 207.5,238.167 207.5,236.833 207.5,235.5C 203.989,237.085 200.322,237.585 196.5,237C 195.663,235.989 195.33,234.822 195.5,233.5C 191.671,231.884 188.004,232.218 184.5,234.5C 185.025,235.192 185.692,235.692 186.5,236C 182.123,238.242 178.123,237.909 174.5,235C 154.691,231.948 155.025,230.448 175.5,230.5C 175.5,231.5 175.5,232.5 175.5,233.5C 177.977,233.949 179.977,233.283 181.5,231.5C 179.255,230.792 177.255,229.792 175.5,228.5 Z"/></g>
<g><path style="opacity:0.925" fill="#51529a" d="M 209.5,230.5 C 210.833,230.5 212.167,230.5 213.5,230.5C 209.596,231.492 205.596,232.492 201.5,233.5C 202.5,232.833 203.5,232.167 204.5,231.5C 205.919,230.549 207.585,230.216 209.5,230.5 Z"/></g>
<g><path style="opacity:0.357" fill="#8286c0" d="M 191.5,231.5 C 191.5,231.167 191.5,230.833 191.5,230.5C 194.48,230.62 197.313,231.287 200,232.5C 201.356,231.62 202.856,231.286 204.5,231.5C 203.5,232.167 202.5,232.833 201.5,233.5C 198.031,233.453 194.698,232.787 191.5,231.5 Z"/></g>
<g><path style="opacity:1" fill="#373888" d="M 183.5,229.5 C 186.096,230.265 188.763,230.599 191.5,230.5C 191.5,230.833 191.5,231.167 191.5,231.5C 189.143,231.663 186.81,231.497 184.5,231C 183.944,230.617 183.611,230.117 183.5,229.5 Z"/></g>
<g><path style="opacity:0.871" fill="#545297" d="M 121.5,212.5 C 124.167,212.5 126.833,212.5 129.5,212.5C 128.194,213.467 127.527,214.801 127.5,216.5C 129.415,216.216 131.081,216.549 132.5,217.5C 130.833,217.5 129.167,217.5 127.5,217.5C 125.513,235.136 124.847,253.136 125.5,271.5C 124.883,271.389 124.383,271.056 124,270.5C 123.5,251.836 123.333,233.17 123.5,214.5C 122.833,213.833 122.167,213.167 121.5,212.5 Z"/></g>
<g><path style="opacity:0.261" fill="#a3a4a6" d="M 120.5,242.5 C 105.005,243.331 89.3387,243.831 73.5,244C 72.287,247.616 71.287,251.282 70.5,255C 66.3234,255.145 62.3234,254.645 58.5,253.5C 62.5,253.5 66.5,253.5 70.5,253.5C 70.7244,249.821 71.0578,246.154 71.5,242.5C 87.8333,242.5 104.167,242.5 120.5,242.5 Z"/></g>
<g><path style="opacity:0.145" fill="#b4b4b6" d="M 3.5,241.5 C 5.00751,243.181 6.00751,245.181 6.5,247.5C 4.46095,246.089 3.46095,244.089 3.5,241.5 Z"/></g>
<g><path style="opacity:1" fill="#0d0f77" d="M 269.5,217.5 C 270.568,216.566 271.901,216.232 273.5,216.5C 273.83,235.008 273.497,253.341 272.5,271.5C 272.667,253.83 272.5,236.164 272,218.5C 271.329,217.748 270.496,217.414 269.5,217.5 Z"/></g>
<g><path style="opacity:0.739" fill="#9b9c9e" d="M 279.5,218.5 C 279.5,227.833 279.5,237.167 279.5,246.5C 317.835,246.667 356.168,246.5 394.5,246C 395.78,243.868 395.78,241.702 394.5,239.5C 396.461,238.422 398.128,237.089 399.5,235.5C 399.5,236.5 399.5,237.5 399.5,238.5C 398.319,241.838 396.653,245.005 394.5,248C 356.373,247.894 318.539,248.061 281,248.5C 279.624,248.316 278.791,247.649 278.5,246.5C 278.173,236.985 278.506,227.652 279.5,218.5 Z"/></g>
<g><path style="opacity:0.829" fill="#909292" d="M 6.5,247.5 C 16.1812,248.104 25.8478,248.937 35.5,250C 36.056,250.383 36.3893,250.883 36.5,251.5C 29.4929,251.166 22.4929,250.666 15.5,250C 12.1489,249.943 9.1489,249.109 6.5,247.5 Z"/></g>
<g><path style="opacity:0.067" fill="#cacacb" d="M 288.5,251.5 C 285.167,251.5 281.833,251.5 278.5,251.5C 278.5,259.167 278.5,266.833 278.5,274.5C 277.344,266.677 277.177,258.677 278,250.5C 278.561,249.978 279.228,249.645 280,249.5C 282.996,250.035 285.829,250.702 288.5,251.5 Z"/></g>
<g><path style="opacity:1" fill="#6d7071" d="M 288.5,251.5 C 288.833,251.5 289.167,251.5 289.5,251.5C 310.863,255.422 332.529,257.756 354.5,258.5C 354.918,259.222 355.584,259.722 356.5,260C 362.842,260.475 369.176,260.975 375.5,261.5C 376.736,263.043 378.402,264.043 380.5,264.5C 381.575,266.811 381.575,269.144 380.5,271.5C 378.821,271.892 377.154,272.392 375.5,273C 375.957,273.414 376.291,273.914 376.5,274.5C 366.333,274.833 356.167,275.167 346,275.5C 323.501,275.05 301.001,274.716 278.5,274.5C 278.5,266.833 278.5,259.167 278.5,251.5C 281.833,251.5 285.167,251.5 288.5,251.5 Z"/></g>
<g><path style="opacity:0.22" fill="#acadae" d="M 289.5,251.5 C 311.316,253.771 332.983,256.104 354.5,258.5C 332.529,257.756 310.863,255.422 289.5,251.5 Z"/></g>
<g><path style="opacity:0.162" fill="#999bc6" d="M 264.5,211.5 C 265.833,211.5 267.167,211.5 268.5,211.5C 270.201,212.734 272.201,213.401 274.5,213.5C 276.818,213.003 279.152,212.67 281.5,212.5C 282.167,212.5 282.833,212.5 283.5,212.5C 281.219,213.339 278.885,214.339 276.5,215.5C 275.833,234.329 275.167,252.996 274.5,271.5C 274.83,252.992 274.497,234.659 273.5,216.5C 272.081,215.549 270.415,215.216 268.5,215.5C 268.611,214.883 268.944,214.383 269.5,214C 267.685,213.243 266.019,212.41 264.5,211.5 Z"/></g>
<g><path style="opacity:0.235" fill="#b5b7b7" d="M 354.5,258.5 C 362.709,258.929 370.709,259.929 378.5,261.5C 377.5,261.5 376.5,261.5 375.5,261.5C 369.176,260.975 362.842,260.475 356.5,260C 355.584,259.722 354.918,259.222 354.5,258.5 Z"/></g>
<g><path style="opacity:0.498" fill="#aaaaac" d="M 43.5,258.5 C 43.5,258.833 43.5,259.167 43.5,259.5C 34.3483,260.494 25.015,260.827 15.5,260.5C 15.5,261.5 15.5,262.5 15.5,263.5C 13.5337,262.745 13.2004,261.579 14.5,260C 24.1453,259.043 33.812,258.543 43.5,258.5 Z"/></g>
<g><path style="opacity:0.995" fill="#8a8c8d" d="M 375.5,261.5 C 376.5,261.5 377.5,261.5 378.5,261.5C 380.857,261.337 383.19,261.503 385.5,262C 385.957,262.414 386.291,262.914 386.5,263.5C 384.829,266.492 382.829,269.159 380.5,271.5C 381.575,269.144 381.575,266.811 380.5,264.5C 378.402,264.043 376.736,263.043 375.5,261.5 Z"/></g>
<g><path style="opacity:1" fill="#6d7072" d="M 43.5,259.5 C 68.8333,259.5 94.1667,259.5 119.5,259.5C 119.5,262.5 119.5,265.5 119.5,268.5C 104.657,268.171 89.9905,268.504 75.5,269.5C 75.2627,270.791 75.596,271.791 76.5,272.5C 77.3382,272.842 77.6716,273.508 77.5,274.5C 77.5394,275.583 77.8728,276.583 78.5,277.5C 75.5719,278.484 72.5719,278.817 69.5,278.5C 69.1667,278.5 68.8333,278.5 68.5,278.5C 62.1461,276.369 55.4795,275.369 48.5,275.5C 48.1667,275.5 47.8333,275.5 47.5,275.5C 40.6938,273.862 33.6938,272.529 26.5,271.5C 23.7918,271.247 21.4585,270.247 19.5,268.5C 17.4131,267.415 16.0798,265.749 15.5,263.5C 15.5,262.5 15.5,261.5 15.5,260.5C 25.015,260.827 34.3483,260.494 43.5,259.5 Z"/></g>
<g><path style="opacity:0.773" fill="#969799" d="M 120.5,269.5 C 105.5,269.5 90.5,269.5 75.5,269.5C 89.9905,268.504 104.657,268.171 119.5,268.5C 119.5,265.5 119.5,262.5 119.5,259.5C 94.1667,259.5 68.8333,259.5 43.5,259.5C 43.5,259.167 43.5,258.833 43.5,258.5C 68.8233,257.446 94.1566,257.28 119.5,258C 121.58,261.714 121.913,265.547 120.5,269.5 Z"/></g>
<g><path style="opacity:0.137" fill="#b9babb" d="M 75.5,269.5 C 90.5,269.5 105.5,269.5 120.5,269.5C 105.638,269.839 90.9715,270.839 76.5,272.5C 75.596,271.791 75.2627,270.791 75.5,269.5 Z"/></g>
<g><path style="opacity:0.267" fill="#a6a7a8" d="M 19.5,268.5 C 21.4585,270.247 23.7918,271.247 26.5,271.5C 33.6938,272.529 40.6938,273.862 47.5,275.5C 38.7424,275.035 30.0757,273.868 21.5,272C 20.1772,271.184 19.5106,270.017 19.5,268.5 Z"/></g>
<g><path style="opacity:1" fill="#281e81" d="M 127.5,217.5 C 126.514,235.09 126.181,252.757 126.5,270.5C 131.65,270.781 136.65,271.781 141.5,273.5C 143.336,272.067 145.336,271.567 147.5,272C 146.167,272.667 146.167,273.333 147.5,274C 149.5,274.333 151.5,274.667 153.5,275C 154.733,276.667 156.067,278.167 157.5,279.5C 157.5,279.833 157.5,280.167 157.5,280.5C 155.901,280.768 154.568,280.434 153.5,279.5C 151.562,277.837 149.228,277.171 146.5,277.5C 144.485,276.076 142.152,275.41 139.5,275.5C 134.46,275.077 129.793,273.744 125.5,271.5C 124.847,253.136 125.513,235.136 127.5,217.5 Z"/></g>
<g><path style="opacity:0.102" fill="#5e5d9d" d="M 273.5,216.5 C 274.497,234.659 274.83,252.992 274.5,271.5C 274.389,272.117 274.056,272.617 273.5,273C 269.213,274.153 264.879,274.987 260.5,275.5C 263.927,273.433 267.594,272.1 271.5,271.5C 271.833,271.5 272.167,271.5 272.5,271.5C 273.497,253.341 273.83,235.008 273.5,216.5 Z"/></g>
<g><path style="opacity:1" fill="#111076" d="M 271.5,271.5 C 267.594,272.1 263.927,273.433 260.5,275.5C 259.791,276.404 258.791,276.737 257.5,276.5C 248.312,277.295 239.645,279.628 231.5,283.5C 230.167,283.5 228.833,283.5 227.5,283.5C 231.086,281.075 235.086,279.409 239.5,278.5C 237.833,277.333 236.167,276.167 234.5,275C 242.152,275.309 249.819,275.309 257.5,275C 257.833,274.667 258.167,274.333 258.5,274C 255.711,273.759 253.044,273.092 250.5,272C 257.492,271.5 264.492,271.334 271.5,271.5 Z"/></g>
<g><path style="opacity:0.431" fill="#a0a1a2" d="M 380.5,271.5 C 379.772,273.735 378.439,275.568 376.5,277C 343.658,277.028 310.991,276.195 278.5,274.5C 301.001,274.716 323.501,275.05 346,275.5C 356.167,275.167 366.333,274.833 376.5,274.5C 376.291,273.914 375.957,273.414 375.5,273C 377.154,272.392 378.821,271.892 380.5,271.5 Z"/></g>
<g><path style="opacity:0.412" fill="#a9aaaa" d="M 48.5,275.5 C 55.4795,275.369 62.1461,276.369 68.5,278.5C 61.637,277.928 54.9703,276.928 48.5,275.5 Z"/></g>
<g><path style="opacity:0.447" fill="#8988bf" d="M 139.5,275.5 C 142.152,275.41 144.485,276.076 146.5,277.5C 143.848,277.59 141.515,276.924 139.5,275.5 Z"/></g>
<g><path style="opacity:1" fill="#161179" d="M 191.5,287.5 C 188.211,286.626 184.877,285.959 181.5,285.5C 180.167,285.5 178.833,285.5 177.5,285.5C 175.585,285.784 173.919,285.451 172.5,284.5C 168.026,281.57 163.026,280.237 157.5,280.5C 157.5,280.167 157.5,279.833 157.5,279.5C 163.936,279.146 170.269,278.146 176.5,276.5C 181.474,277.255 186.474,277.589 191.5,277.5C 191.5,278.833 191.5,280.167 191.5,281.5C 184.698,280.521 178.032,279.855 171.5,279.5C 171.36,281.124 172.027,282.29 173.5,283C 177.5,283.333 181.5,283.667 185.5,284C 187.889,284.739 189.889,285.905 191.5,287.5 Z"/></g>
<g><path style="opacity:0.271" fill="#7779b6" d="M 257.5,276.5 C 249.149,279.611 240.482,281.944 231.5,283.5C 239.645,279.628 248.312,277.295 257.5,276.5 Z"/></g>
<g><path style="opacity:0.286" fill="#9e9e9f" d="M 333.5,285.5 C 312.249,283.895 291.082,281.562 270,278.5C 266.165,278.89 262.332,279.223 258.5,279.5C 262.001,278.372 265.667,277.372 269.5,276.5C 290.971,279.52 312.305,282.52 333.5,285.5 Z"/></g>
<g><path style="opacity:0.361" fill="#8d8ec7" d="M 146.5,277.5 C 149.228,277.171 151.562,277.837 153.5,279.5C 150.848,279.59 148.515,278.924 146.5,277.5 Z"/></g>
<g><path style="opacity:0.125" fill="#bdbdbf" d="M 77.5,274.5 C 79.539,275.911 80.539,277.911 80.5,280.5C 76.6125,280.354 72.9458,279.687 69.5,278.5C 72.5719,278.817 75.5719,278.484 78.5,277.5C 77.8728,276.583 77.5394,275.583 77.5,274.5 Z"/></g>
<g><path style="opacity:0.412" fill="#8283bd" d="M 157.5,280.5 C 163.026,280.237 168.026,281.57 172.5,284.5C 167.278,283.613 162.278,282.279 157.5,280.5 Z"/></g>
<g><path style="opacity:0.347" fill="#a9aaaa" d="M 157.5,283.5 C 133.5,283.5 109.5,283.5 85.5,283.5C 82.5,283.5 79.5,283.5 76.5,283.5C 82.3224,282.585 88.3224,281.919 94.5,281.5C 113.796,282.74 132.962,282.74 152,281.5C 153.948,282.109 155.782,282.776 157.5,283.5 Z"/></g>
<g><path style="opacity:0.41" fill="#babbbd" d="M 73.5,283.5 C 68.3595,284.488 63.0262,284.821 57.5,284.5C 61.6745,283.718 66.0078,283.051 70.5,282.5C 71.5837,282.685 72.5837,283.018 73.5,283.5 Z"/></g>
<g><path style="opacity:0.076" fill="#c6c8ca" d="M 51.5,284.5 C 47.03,285.486 42.3633,285.819 37.5,285.5C 37.5,286.5 37.5,287.5 37.5,288.5C 36.0462,287.48 35.7129,286.313 36.5,285C 41.4889,284.501 46.4889,284.334 51.5,284.5 Z"/></g>
<g><path style="opacity:0.939" fill="#898d8e" d="M 73.5,283.5 C 74.5,283.5 75.5,283.5 76.5,283.5C 79.5,283.5 82.5,283.5 85.5,283.5C 72.3684,285.108 59.0351,286.108 45.5,286.5C 43.1667,286.833 40.8333,287.167 38.5,287.5C 38.8627,288.183 39.1961,288.85 39.5,289.5C 38.5084,289.672 37.8417,289.338 37.5,288.5C 37.5,287.5 37.5,286.5 37.5,285.5C 42.3633,285.819 47.03,285.486 51.5,284.5C 53.5,284.5 55.5,284.5 57.5,284.5C 63.0262,284.821 68.3595,284.488 73.5,283.5 Z"/></g>
<g><path style="opacity:0.563" fill="#a7aaaa" d="M 335.5,285.5 C 344.512,286.418 353.512,287.418 362.5,288.5C 362.912,290.973 361.912,292.306 359.5,292.5C 359.119,291.069 358.119,290.236 356.5,290C 349.186,288.675 342.186,287.175 335.5,285.5 Z"/></g>
<g><path style="opacity:0.307" fill="#a4a6a7" d="M 42.5,291.5 C 61.8021,296.606 81.4688,299.772 101.5,301C 98.0691,298.437 95.7358,295.27 94.5,291.5C 118.524,290.843 142.19,291.51 165.5,293.5C 142.508,292.242 119.508,292.242 96.5,293.5C 99.5,296.833 102.5,300.167 105.5,303.5C 86.1478,301.664 66.8145,298.83 47.5,295C 45.1192,294.777 43.4525,293.61 42.5,291.5 Z"/></g>
<g><path style="opacity:1" fill="#6d7071" d="M 333.5,285.5 C 334.167,285.5 334.833,285.5 335.5,285.5C 342.186,287.175 349.186,288.675 356.5,290C 358.119,290.236 359.119,291.069 359.5,292.5C 356.69,295.136 353.69,297.636 350.5,300C 348.423,301.705 346.09,302.872 343.5,303.5C 323.526,302.002 303.526,301.002 283.5,300.5C 282.167,300.5 280.833,300.5 279.5,300.5C 260.383,298.216 241.05,296.882 221.5,296.5C 221.5,297.833 221.5,299.167 221.5,300.5C 233.874,301.037 246.207,302.037 258.5,303.5C 266.516,305.96 274.85,306.96 283.5,306.5C 294.554,308.997 305.888,310.33 317.5,310.5C 319.042,311.163 320.709,311.83 322.5,312.5C 318.657,313.993 314.99,315.66 311.5,317.5C 301.484,318.836 291.484,320.336 281.5,322C 280.584,322.278 279.918,322.778 279.5,323.5C 278.5,323.5 277.5,323.5 276.5,323.5C 259.094,323.693 241.76,322.693 224.5,320.5C 216.746,317.249 208.746,314.582 200.5,312.5C 194.399,308.116 187.732,304.783 180.5,302.5C 175.233,299.89 170.233,296.89 165.5,293.5C 142.19,291.51 118.524,290.843 94.5,291.5C 95.7358,295.27 98.0691,298.437 101.5,301C 81.4688,299.772 61.8021,296.606 42.5,291.5C 40.9731,291.573 39.9731,290.906 39.5,289.5C 39.1961,288.85 38.8627,288.183 38.5,287.5C 40.8333,287.167 43.1667,286.833 45.5,286.5C 59.0351,286.108 72.3684,285.108 85.5,283.5C 109.5,283.5 133.5,283.5 157.5,283.5C 163.164,285.937 169.164,287.604 175.5,288.5C 180.542,290.462 185.875,291.795 191.5,292.5C 191.833,292.5 192.167,292.5 192.5,292.5C 195.261,295.136 198.594,295.969 202.5,295C 216.607,292.227 230.273,288.394 243.5,283.5C 248.191,281.409 253.191,280.076 258.5,279.5C 262.332,279.223 266.165,278.89 270,278.5C 291.082,281.562 312.249,283.895 333.5,285.5 Z"/></g>
<g><path style="opacity:0.184" fill="#a9aaac" d="M 279.5,300.5 C 262.507,299.482 245.507,298.982 228.5,299C 238.708,300.047 248.708,301.547 258.5,303.5C 246.207,302.037 233.874,301.037 221.5,300.5C 221.5,299.167 221.5,297.833 221.5,296.5C 241.05,296.882 260.383,298.216 279.5,300.5 Z"/></g>
<g><path style="opacity:0.361" fill="#a7a8a8" d="M 243.5,283.5 C 230.273,288.394 216.607,292.227 202.5,295C 198.594,295.969 195.261,295.136 192.5,292.5C 195.313,292.548 197.979,293.215 200.5,294.5C 214.686,290.197 229.019,286.53 243.5,283.5 Z"/></g>
<g><path style="opacity:0.306" fill="#adafb3" d="M 175.5,288.5 C 181.17,288.917 186.503,290.251 191.5,292.5C 185.875,291.795 180.542,290.462 175.5,288.5 Z"/></g>
<g><path style="opacity:0.431" fill="#8486ba" d="M 191.5,289.5 C 195.81,290.08 200.143,290.414 204.5,290.5C 200.07,291.861 195.737,291.527 191.5,289.5 Z"/></g>
<g><path style="opacity:0.016" fill="#8c8dc5" d="M 227.5,283.5 C 228.833,283.5 230.167,283.5 231.5,283.5C 222.895,286.902 213.895,289.236 204.5,290.5C 204.611,289.883 204.944,289.383 205.5,289C 208.036,288.814 210.369,288.314 212.5,287.5C 217.28,285.424 222.28,284.09 227.5,283.5 Z"/></g>
<g><path style="opacity:1" fill="#2d2882" d="M 181.5,285.5 C 184.877,285.959 188.211,286.626 191.5,287.5C 198.479,288.458 205.479,288.458 212.5,287.5C 210.369,288.314 208.036,288.814 205.5,289C 204.944,289.383 204.611,289.883 204.5,290.5C 200.143,290.414 195.81,290.08 191.5,289.5C 189.901,289.768 188.568,289.434 187.5,288.5C 185.5,287.5 183.5,286.5 181.5,285.5 Z"/></g>
<g><path style="opacity:0.541" fill="#8587bc" d="M 177.5,285.5 C 178.833,285.5 180.167,285.5 181.5,285.5C 183.5,286.5 185.5,287.5 187.5,288.5C 183.838,288.277 180.505,287.277 177.5,285.5 Z"/></g>
<g><path style="opacity:0.31" fill="#b3b6b3" d="M 157.5,283.5 C 163.835,284.395 169.835,286.062 175.5,288.5C 169.164,287.604 163.164,285.937 157.5,283.5 Z"/></g>
<g><path style="opacity:0.933" fill="#abadaf" d="M 180.5,302.5 C 187.732,304.783 194.399,308.116 200.5,312.5C 193.236,310.202 186.57,306.868 180.5,302.5 Z"/></g>
<g><path style="opacity:0.533" fill="#aaadae" d="M 283.5,300.5 C 303.526,301.002 323.526,302.002 343.5,303.5C 341.527,304.163 339.361,304.496 337,304.5C 318.987,303.511 301.153,302.178 283.5,300.5 Z"/></g>
<g><path style="opacity:0.373" fill="#9fa1a2" d="M 258.5,303.5 C 267.058,303.786 275.391,304.786 283.5,306.5C 274.85,306.96 266.516,305.96 258.5,303.5 Z"/></g>
<g><path style="opacity:0.297" fill="#abadac" d="M 185.5,310.5 C 158.544,309.517 131.544,309.184 104.5,309.5C 129.706,308.824 155.039,308.158 180.5,307.5C 182.598,307.957 184.264,308.957 185.5,310.5 Z"/></g>
<g><path style="opacity:0.869" fill="#818283" d="M 99.5,309.5 C 101.167,309.5 102.833,309.5 104.5,309.5C 131.544,309.184 158.544,309.517 185.5,310.5C 188.001,310.826 189.168,312.159 189,314.5C 186.618,315.554 184.118,316.221 181.5,316.5C 180.167,316.5 178.833,316.5 177.5,316.5C 177.351,315.448 177.517,314.448 178,313.5C 180.837,315.053 183.337,314.72 185.5,312.5C 184.624,311.749 183.624,311.249 182.5,311C 151.82,310.21 121.154,310.543 90.5,312C 89.1667,312.333 87.8333,312.667 86.5,313C 87.056,313.383 87.3893,313.883 87.5,314.5C 85.5,314.5 83.5,314.5 81.5,314.5C 79.9577,313.859 78.6243,312.859 77.5,311.5C 84.9891,310.833 92.3225,310.167 99.5,309.5 Z"/></g>
<g><path style="opacity:0.153" fill="#adaeb0" d="M 283.5,306.5 C 295.021,307.422 306.354,308.756 317.5,310.5C 305.888,310.33 294.554,308.997 283.5,306.5 Z"/></g>
<g><path style="opacity:0.3" fill="#bbbdbe" d="M 99.5,309.5 C 92.3225,310.167 84.9891,310.833 77.5,311.5C 78.6243,312.859 79.9577,313.859 81.5,314.5C 77.5067,315 75.84,313.5 76.5,310C 84.1594,309.5 91.8261,309.334 99.5,309.5 Z"/></g>
<g><path style="opacity:1" fill="#6d7071" d="M 177.5,316.5 C 170.926,318.279 164.259,319.779 157.5,321C 139.444,321.932 121.444,321.432 103.5,319.5C 98.4646,317.235 93.1313,315.568 87.5,314.5C 87.3893,313.883 87.056,313.383 86.5,313C 87.8333,312.667 89.1667,312.333 90.5,312C 121.154,310.543 151.82,310.21 182.5,311C 183.624,311.249 184.624,311.749 185.5,312.5C 183.337,314.72 180.837,315.053 178,313.5C 177.517,314.448 177.351,315.448 177.5,316.5 Z"/></g>
<g><path style="opacity:0.514" fill="#a9aaab" d="M 200.5,312.5 C 208.746,314.582 216.746,317.249 224.5,320.5C 216.085,318.806 208.085,316.14 200.5,312.5 Z"/></g>
<g><path style="opacity:0.847" fill="#a3a4a5" d="M 81.5,314.5 C 83.5,314.5 85.5,314.5 87.5,314.5C 93.1313,315.568 98.4646,317.235 103.5,319.5C 95.8848,318.58 88.5515,316.913 81.5,314.5 Z"/></g>
<g><path style="opacity:0.141" fill="#afb0b1" d="M 317.5,310.5 C 319.5,310.5 321.5,310.5 323.5,310.5C 323.762,311.978 323.429,313.311 322.5,314.5C 318.952,315.97 315.285,316.97 311.5,317.5C 314.99,315.66 318.657,313.993 322.5,312.5C 320.709,311.83 319.042,311.163 317.5,310.5 Z"/></g>
<g><path style="opacity:0.302" fill="#a5a5a6" d="M 311.5,317.5 C 301.222,320.888 290.555,322.888 279.5,323.5C 279.918,322.778 280.584,322.278 281.5,322C 291.484,320.336 301.484,318.836 311.5,317.5 Z"/></g>
<g><path style="opacity:0.725" fill="#acadae" d="M 177.5,316.5 C 178.833,316.5 180.167,316.5 181.5,316.5C 167.248,321.608 152.415,323.941 137,323.5C 125.534,323.505 114.367,322.172 103.5,319.5C 121.444,321.432 139.444,321.932 157.5,321C 164.259,319.779 170.926,318.279 177.5,316.5 Z"/></g>
<g><path style="opacity:0.716" fill="#a4a5a6" d="M 224.5,320.5 C 241.76,322.693 259.094,323.693 276.5,323.5C 264.674,324.66 252.674,324.826 240.5,324C 234.889,323.514 229.556,322.347 224.5,320.5 Z"/></g>
</svg>
